<svg xmlns="http://www.w3.org/2000/svg" width="135.131" height="96.341" viewBox="0 0 135.131 96.341"><defs><style>.a{fill:#161616;}</style></defs><g transform="translate(-7793.477 -206.236)"><g transform="translate(7879.033 212.472)"><path class="a" d="M8491.014,269.84c-.456-4.322-.9-8.506-1.357-12.855h1.722q22.852,0,45.7,0c2.062,0,2.548.605,1.685,2.507a10.633,10.633,0,0,1-2.284,3.231,27.553,27.553,0,0,1-10.715,6.295,16.682,16.682,0,0,1-4.808.711c-9.708.117-19.418.143-29.123.195C8491.6,269.928,8491.376,269.88,8491.014,269.84Z" transform="translate(-8489.656 -256.985)"/></g><g transform="translate(7793.711 212.474)"><path class="a" d="M7844.792,257.055c-.466,4.328-.917,8.521-1.375,12.792-.421.034-.815.1-1.21.094-9.305-.045-18.61-.112-27.916-.141-6.565-.021-11.805-3.044-16.518-7.234a6.469,6.469,0,0,1-2.326-3.792c-.223-1.414.068-1.77,1.513-1.771q23.555-.01,47.111,0C7844.3,257,7844.525,257.035,7844.792,257.055Z" transform="translate(-7795.381 -256.999)"/></g><g transform="translate(7810.571 226.528)"><path class="a" d="M7963.78,371.449v11.5c-.518.043-1.016.121-1.513.119-4.183-.02-8.366-.039-12.549-.087-6.051-.07-10.91-2.852-15.145-6.87a8.4,8.4,0,0,1-1.823-3.092c-.446-1.17-.041-1.588,1.194-1.656.231-.013.465,0,.7,0q13.768,0,27.54,0C7962.689,371.363,7963.2,371.416,7963.78,371.449Z" transform="translate(-7932.575 -371.356)"/></g><g transform="translate(7880.409 226.531)"><path class="a" d="M8500.849,382.961V371.514c.455-.044.9-.125,1.345-.126q14.016-.011,28.033,0c1.709,0,2.181.518,1.5,2.085a9.148,9.148,0,0,1-2.257,3.224c-3.859,3.376-8.154,6.047-13.456,6.229C8511.036,383.095,8506.041,382.961,8500.849,382.961Z" transform="translate(-8500.849 -371.382)"/></g><g transform="translate(7843.61 206.236)"><path class="a" d="M8236.6,232.846a133.746,133.746,0,0,1-1.158,16.843c-.747,4.868-3.835,7.536-8.312,8.768a30.466,30.466,0,0,1-10.206.838,32.475,32.475,0,0,1-6.029-.8c-4.634-1.222-7.774-3.986-8.512-8.991a104.778,104.778,0,0,1-.967-14.579c-.039-5.631.27-11.242.655-16.864.532-7.68,5.684-10.8,11.315-11.471a41.646,41.646,0,0,1,12.838.3,11.924,11.924,0,0,1,7.434,4.475,8.2,8.2,0,0,1,1.673,3.965c.207,1.493.513,2.981.6,4.481C8236.2,224.153,8236.385,228.5,8236.6,232.846Zm-1.214-.035c-.3-5.821-.389-11.622-1.361-17.37a7.578,7.578,0,0,0-2.463-4.482,10.823,10.823,0,0,0-5.355-2.73,37.915,37.915,0,0,0-13.861-.091c-5.516,1-8.183,3.895-8.844,9.382a143.348,143.348,0,0,0-.6,22.6c.129,3.411.608,6.811.992,10.208a6.616,6.616,0,0,0,2.052,3.946,10.849,10.849,0,0,0,5.9,3.143,39.451,39.451,0,0,0,13.692.059c5.383-.93,8.279-3.874,8.759-9.225C8234.754,243.115,8235.03,237.959,8235.387,232.811Z" transform="translate(-8201.414 -206.236)"/></g><g transform="translate(7826.388 239.621)"><path class="a" d="M8076.7,477.9c.246,3.15.493,6.309.759,9.72-1.565-.369-3.022-.623-4.422-1.061a37.044,37.044,0,0,1-9.507-4.611,4.732,4.732,0,0,1-2.183-2.824c-.206-.867,0-1.206.919-1.211C8067.021,477.885,8071.775,477.9,8076.7,477.9Z" transform="translate(-8061.276 -477.895)"/></g><g transform="translate(7879.617 239.602)"><path class="a" d="M8495.11,477.739h15.185a2.51,2.51,0,0,1-.643,2.835,11.1,11.1,0,0,1-2.288,1.85,33.8,33.8,0,0,1-12.956,4.974C8494.644,484.164,8494.879,480.965,8495.11,477.739Z" transform="translate(-8494.408 -477.739)"/></g><g transform="translate(7846.67 209.552)"><path class="a" d="M8255.519,256.586c-.381,4.972-.692,10.008-1.175,15.027-.377,3.953-2.928,6.3-6.521,7.3a27.642,27.642,0,0,1-13.639.141,8.626,8.626,0,0,1-7.016-7.863,128.865,128.865,0,0,1-.43-25.368c.1-1.387.259-2.772.436-4.152a8.853,8.853,0,0,1,7.42-7.9,34.686,34.686,0,0,1,11.951-.068c4.47.7,7.353,3.574,7.828,8.048C8254.9,246.655,8255.144,251.581,8255.519,256.586Zm-25.061-17.326c-.042.607-.1,1.115-.1,1.623q-.01,14.283,0,28.565a11.83,11.83,0,0,0,.179,1.9,4.142,4.142,0,0,0,3,3.505,9.821,9.821,0,0,0,3.409.51c4.281-.286,5.852-2.487,5.638-5.969-.042-.694,0-1.393,0-2.09q0-11.235.01-22.469a11.352,11.352,0,0,1,.219-2.415,2.11,2.11,0,0,1,2.424-1.745,2.053,2.053,0,0,1,2.122,1.913,15.748,15.748,0,0,1,.134,2.43q.012,13.324.008,26.649c0,.676.041,1.353.064,2.046h3.555c.033-.658.086-1.224.086-1.789q.006-14.109-.009-28.217a7.062,7.062,0,0,0-.326-2.568,5.328,5.328,0,0,0-1.621-2.372,7.405,7.405,0,0,0-7.63-.478c-2.287,1.031-2.749,3.121-2.66,5.409.021.58,0,1.161,0,1.742q0,11.5-.01,22.992a8.9,8.9,0,0,1-.193,2.066,2.085,2.085,0,0,1-2.391,1.794,2.131,2.131,0,0,1-2.206-2.037,18.543,18.543,0,0,1-.129-2.606q-.013-13.15-.006-26.3V239.26Z" transform="translate(-8226.319 -233.223)"/></g><g transform="translate(7793.478 262.244)"><g transform="translate(0 0)"><path class="a" d="M7803.531,662.264v19.992a4.134,4.134,0,0,1-.276,1.48,4.235,4.235,0,0,1-.776,1.29,4.047,4.047,0,0,1-1.158.912,3.005,3.005,0,0,1-1.415.344h-2.833a2.943,2.943,0,0,1-1.382-.344,3.814,3.814,0,0,1-1.138-.912,4.7,4.7,0,0,1-.776-1.29,3.907,3.907,0,0,1-.294-1.48V662.264l2.823,2.787v17.205a.8.8,0,0,0,.238.585.727.727,0,0,0,.517.241h2.822a.817.817,0,0,0,.568-.241.769.769,0,0,0,.258-.585V665.051Z" transform="translate(-7793.482 -662.23)"/><path class="a" d="M7906.949,661.984v27.081l-2.752-2.718-4.509-14.452V684.11l-3.164,2.237V661.984h3.164L7904.2,676.4V661.984Z" transform="translate(-7883.86 -661.984)"/><path class="a" d="M8005.164,686.842V662.824h2.821v24.018Z" transform="translate(-7979.15 -662.721)"/><path class="a" d="M8057.261,664.84h-2.821v21.265h-2.891V664.84h-3.269v-2.856h11.011Z" transform="translate(-8016.968 -661.984)"/><path class="a" d="M8182.282,686.317H8169.24V662.264h11.425l-2.477,2.856h-6.125v8.155h4.1l3.682,2.856h-7.777v7.33h10.22Z" transform="translate(-8123.062 -662.23)"/><path class="a" d="M8313.051,663.384a3.624,3.624,0,0,1,1.581.344,4.059,4.059,0,0,1,2.048,2.151,3.678,3.678,0,0,1,.294,1.428V683.48a3.338,3.338,0,0,1-1.084,2.512,3.943,3.943,0,0,1-2.839,1.032h-6.332v-23.64h6.332Zm1.171,4.3a.978.978,0,0,0-.449-.877,1.45,1.45,0,0,0-.722-.293h-3.2v17.756h3.579a.827.827,0,0,0,.792-.791V667.685Z" transform="translate(-8243.646 -663.212)"/></g><g transform="translate(83.849 0)"><path class="a" d="M8482.193,662.544a3.858,3.858,0,0,1,1.641.344,4.117,4.117,0,0,1,2.107,2.2,3.922,3.922,0,0,1,.29,1.48V686.6h-2.819v-4.817h-4.819V686.6h-2.821V666.57a3.927,3.927,0,0,1,.294-1.48,4.341,4.341,0,0,1,.812-1.29,3.89,3.89,0,0,1,2.937-1.256Zm1.219,4.026a.7.7,0,0,0-.312-.551,1.494,1.494,0,0,0-.928-.241H8479.8a1.423,1.423,0,0,0-.912.241.708.708,0,0,0-.295.551v12.009h4.819Z" transform="translate(-8475.771 -662.475)"/><path class="a" d="M8604.254,662.264v19.992a4.163,4.163,0,0,1-.273,1.48,4.287,4.287,0,0,1-.777,1.29,4.065,4.065,0,0,1-1.157.912,3.008,3.008,0,0,1-1.416.344H8597.8a2.924,2.924,0,0,1-1.379-.344,3.826,3.826,0,0,1-1.143-.912,4.741,4.741,0,0,1-.774-1.29,3.87,3.87,0,0,1-.295-1.48V662.264l2.824,2.787v17.205a.8.8,0,0,0,.237.585.727.727,0,0,0,.518.241h2.822a.822.822,0,0,0,.569-.241.775.775,0,0,0,.256-.585V665.051Z" transform="translate(-8579.651 -662.23)"/><path class="a" d="M8703.988,664.84h-2.822v21.265h-2.891V664.84h-3.269v-2.856h11.011Z" transform="translate(-8668.064 -661.984)"/><path class="a" d="M8813.211,663.384a4.063,4.063,0,0,1,2.932,1.067,3.478,3.478,0,0,1,1.116,2.615V683.72a3.438,3.438,0,0,1-1.116,2.581,4.06,4.06,0,0,1-2.932,1.067h-2.437a4.076,4.076,0,0,1-2.935-1.067,3.445,3.445,0,0,1-1.113-2.581V667.066a3.486,3.486,0,0,1,1.113-2.615,4.08,4.08,0,0,1,2.935-1.067Zm1.227,6.916v-3.235a.735.735,0,0,0-.3-.585,1.439,1.439,0,0,0-.918-.241h-2.462a1.435,1.435,0,0,0-.916.241.734.734,0,0,0-.3.585V683.72a.7.7,0,0,0,.3.551,1.43,1.43,0,0,0,.916.241h2.462a1.434,1.434,0,0,0,.918-.241.7.7,0,0,0,.3-.551V670.3Z" transform="translate(-8766.056 -663.212)"/></g></g><g transform="translate(7793.477 290.65)"><path class="a" d="M7798.071,903.6a.87.87,0,0,1-.105.356,1.113,1.113,0,0,1-.257.356l-.347.333.347.363a1.124,1.124,0,0,1,.257.356.862.862,0,0,1,.105.341v4.617l-1.421.893v-4.777a.954.954,0,0,0-.331-.8,1.167,1.167,0,0,0-.727-.257h-.71v5.109h-1.405V899.881h2.826a1.716,1.716,0,0,1,.65.129,1.815,1.815,0,0,1,.566.363,1.8,1.8,0,0,1,.4.56,1.7,1.7,0,0,1,.15.719Zm-1.421-1.94a.6.6,0,0,0-.113-.393.314.314,0,0,0-.234-.136h-1.42v2.827h.71a1.146,1.146,0,0,0,.727-.264.976.976,0,0,0,.331-.809Z" transform="translate(-7793.477 -899.866)"/><path class="a" d="M7847.421,910.693h-5.729V900.127h5.018l-1.088,1.255h-2.691v3.583h1.8l1.619,1.255h-3.418v3.22h4.491Z" transform="translate(-7835.766 -900.082)"/><path class="a" d="M7900.356,910.186a1.516,1.516,0,0,1-.484-1.143v-7.311a1.517,1.517,0,0,1,.484-1.143,1.8,1.8,0,0,1,1.3-.462h1.073a1.769,1.769,0,0,1,1.293.467,1.551,1.551,0,0,1,.477,1.151v1.617l-1.241,1.058v-2.675a.333.333,0,0,0-.137-.242.582.582,0,0,0-.4-.121h-1.081a.572.572,0,0,0-.4.121.337.337,0,0,0-.13.242v7.3a.305.305,0,0,0,.13.242.627.627,0,0,0,.4.106h1.081a.639.639,0,0,0,.4-.106.3.3,0,0,0,.137-.242V907.1l1.241-1.073v3.023a1.528,1.528,0,0,1-.477,1.141,1.781,1.781,0,0,1-1.293.461h-1.073A1.8,1.8,0,0,1,7900.356,910.186Z" transform="translate(-7886.796 -900.082)"/><path class="a" d="M7943.29,899.939h1.77l2.81,2.267v-2.449h1.407v4.912Zm4.58,10.384V904.5l1.407,1.058v4.761Z" transform="translate(-7924.879 -899.758)"/><path class="a" d="M8003.919,910.186a1.522,1.522,0,0,1-.483-1.143v-7.311a1.523,1.523,0,0,1,.483-1.143,1.811,1.811,0,0,1,1.3-.462h1.074a1.771,1.771,0,0,1,1.293.467,1.551,1.551,0,0,1,.477,1.151v1.617l-1.241,1.058v-2.675a.331.331,0,0,0-.137-.242.577.577,0,0,0-.4-.121h-1.081a.572.572,0,0,0-.4.121.341.341,0,0,0-.129.242v7.3a.309.309,0,0,0,.129.242.627.627,0,0,0,.4.106h1.081a.633.633,0,0,0,.4-.106.3.3,0,0,0,.137-.242V907.1l1.241-1.073v3.023a1.527,1.527,0,0,1-.477,1.141,1.783,1.783,0,0,1-1.293.461h-1.074A1.81,1.81,0,0,1,8003.919,910.186Z" transform="translate(-7977.633 -900.082)"/><path class="a" d="M8054.577,909.577l-1.087,1.255h-3.93V900.25h1.421v9.326Z" transform="translate(-8018.09 -900.19)"/><path class="a" d="M8107.193,910.693h-5.727V900.127h5.017l-1.089,1.255h-2.69v3.583h1.8l1.617,1.255H8102.7v3.22h4.49Z" transform="translate(-8063.616 -900.082)"/><path class="a" d="M8157.351,903.6a.874.874,0,0,1-.106.356,1.13,1.13,0,0,1-.258.356l-.347.333.347.363a1.142,1.142,0,0,1,.258.356.867.867,0,0,1,.106.341v4.617l-1.422.893v-4.777a.949.949,0,0,0-.332-.8,1.165,1.165,0,0,0-.726-.257h-.711v5.109h-1.407V899.881h2.828a1.719,1.719,0,0,1,.649.129,1.779,1.779,0,0,1,.567.363,1.831,1.831,0,0,1,.4.56,1.728,1.728,0,0,1,.15.719Zm-1.422-1.94a.6.6,0,0,0-.112-.393.316.316,0,0,0-.235-.136h-1.421v2.827h.711a1.144,1.144,0,0,0,.726-.264.971.971,0,0,0,.332-.809Z" transform="translate(-8108.601 -899.866)"/><path class="a" d="M8196.42,900.127h4.942v1.224h-2.477l2.3,2.827v1.754Zm0,3.341,4.763,6v-1.95l-4.763-5.986Zm0,6h2.3l-2.3-2.827v-1.935l4.582,5.986h-4.582Z" transform="translate(-8146.901 -900.082)"/></g><g transform="translate(7880.375 290.665)"><path class="a" d="M8504.522,901.259h-1.24V910.6h-1.268v-9.342h-1.437V900h4.836Z" transform="translate(-8500.578 -899.989)"/><path class="a" d="M8549.331,903.6a.871.871,0,0,1-.107.356,1.109,1.109,0,0,1-.255.356l-.35.333.35.363a1.12,1.12,0,0,1,.255.356.864.864,0,0,1,.107.341v4.617l-1.423.893v-4.777a.948.948,0,0,0-.331-.8,1.162,1.162,0,0,0-.727-.257h-.71v5.109h-1.405V899.881h2.828a1.717,1.717,0,0,1,.647.129,1.794,1.794,0,0,1,.968.923,1.663,1.663,0,0,1,.152.719Zm-1.423-1.94a.606.606,0,0,0-.111-.393.317.317,0,0,0-.233-.136h-1.423v2.827h.71a1.141,1.141,0,0,0,.727-.264.97.97,0,0,0,.331-.809Z" transform="translate(-8539.31 -899.881)"/><path class="a" d="M8590.359,900.25a1.706,1.706,0,0,1,.72.151,1.831,1.831,0,0,1,.562.4,1.879,1.879,0,0,1,.365.567,1.749,1.749,0,0,1,.126.65v8.8h-1.237V908.7h-2.117v2.116h-1.238v-8.8a1.661,1.661,0,0,1,.13-.65,1.845,1.845,0,0,1,.354-.567,1.713,1.713,0,0,1,1.29-.552Zm.535,1.768a.307.307,0,0,0-.137-.242.656.656,0,0,0-.408-.106h-1.043a.615.615,0,0,0-.4.106.309.309,0,0,0-.13.242v5.276h2.117Z" transform="translate(-8576.853 -900.205)"/><path class="a" d="M8636.4,900v11.9l-1.208-1.194-1.98-6.349v5.366l-1.393.983V900h1.393l1.98,6.334V900Z" transform="translate(-8615.688 -899.989)"/><path class="a" d="M8675.482,900.127h4.942v1.224h-2.479l2.3,2.827v1.754Zm0,3.341,4.761,6v-1.95l-4.761-5.986Zm0,6h2.3l-2.3-2.827v-1.935l4.58,5.986h-4.58Z" transform="translate(-8653.987 -900.097)"/><path class="a" d="M8725.946,900a1.81,1.81,0,0,1,.661.128,1.873,1.873,0,0,1,.582.363,1.674,1.674,0,0,1,.41.575,1.812,1.812,0,0,1,.153.748v5a1.519,1.519,0,0,1-.153.665,2.1,2.1,0,0,1-.992.983,1.573,1.573,0,0,1-.661.151h-1.626v1.98h-1.238V900h2.864Zm.37,1.814a.667.667,0,0,0-.137-.355.462.462,0,0,0-.411-.2h-1.448v5.925h1.631a.34.34,0,0,0,.249-.114.344.344,0,0,0,.116-.249v-5Z" transform="translate(-8695.738 -899.989)"/><path class="a" d="M8770.7,900.619a1.78,1.78,0,0,1,1.286.469,1.52,1.52,0,0,1,.491,1.149v7.316a1.5,1.5,0,0,1-.491,1.134,1.779,1.779,0,0,1-1.286.469h-1.071a1.791,1.791,0,0,1-1.288-.469,1.511,1.511,0,0,1-.489-1.134v-7.316a1.529,1.529,0,0,1,.489-1.149,1.791,1.791,0,0,1,1.288-.469Zm.536,3.038v-1.421a.32.32,0,0,0-.127-.257.643.643,0,0,0-.405-.106h-1.079a.641.641,0,0,0-.405.106.326.326,0,0,0-.13.257v7.316a.313.313,0,0,0,.13.242.64.64,0,0,0,.405.106h1.079a.641.641,0,0,0,.405-.106.306.306,0,0,0,.127-.242v-5.9Z" transform="translate(-8735.005 -900.528)"/><path class="a" d="M8815.126,903.6a.862.862,0,0,1-.105.356,1.1,1.1,0,0,1-.259.356l-.347.333.347.363a1.113,1.113,0,0,1,.259.356.854.854,0,0,1,.105.341v4.617l-1.42.893v-4.777a.953.953,0,0,0-.334-.8,1.157,1.157,0,0,0-.725-.257h-.711v5.109h-1.405V899.881h2.827a1.716,1.716,0,0,1,.649.129,1.835,1.835,0,0,1,.568.363,1.811,1.811,0,0,1,.4.56,1.677,1.677,0,0,1,.151.719Zm-1.42-1.94a.59.59,0,0,0-.114-.393.316.316,0,0,0-.233-.136h-1.422v2.827h.711a1.136,1.136,0,0,0,.725-.264.975.975,0,0,0,.334-.809Z" transform="translate(-8772.439 -899.881)"/><path class="a" d="M8857.65,901.259h-1.238V910.6h-1.271v-9.342h-1.436V900h4.836Z" transform="translate(-8810.31 -899.989)"/></g><g transform="translate(7856.243 290.68)"><path class="a" d="M8307.034,900.251a1.7,1.7,0,0,1,.721.151,1.823,1.823,0,0,1,.563.4,1.8,1.8,0,0,1,.363.567,1.732,1.732,0,0,1,.129.65v8.8h-1.239V908.7h-2.116v2.116h-1.239v-8.8a1.66,1.66,0,0,1,.13-.65,1.918,1.918,0,0,1,.353-.567,1.8,1.8,0,0,1,.553-.4,1.754,1.754,0,0,1,.737-.151Zm.536,1.769a.306.306,0,0,0-.136-.242.664.664,0,0,0-.407-.106h-1.043a.627.627,0,0,0-.4.106.3.3,0,0,0-.128.242v5.276h2.116Z" transform="translate(-8304.215 -900.221)"/><path class="a" d="M8353.073,900.005v11.9l-1.207-1.194-1.982-6.349v5.366l-1.392.983v-10.7h1.392l1.982,6.333v-6.333Z" transform="translate(-8343.051 -900.005)"/><path class="a" d="M8399.612,900.62a1.6,1.6,0,0,1,.7.151,1.831,1.831,0,0,1,.546.393,1.854,1.854,0,0,1,.353.552,1.606,1.606,0,0,1,.132.627v7.1a1.456,1.456,0,0,1-.479,1.1,1.729,1.729,0,0,1-1.246.454h-2.78V900.62h2.78Zm.515,1.889a.43.43,0,0,0-.2-.385.628.628,0,0,0-.316-.128h-1.405v7.8h1.573a.362.362,0,0,0,.347-.348v-6.938Z" transform="translate(-8385.448 -900.544)"/></g></g></svg>