<svg xmlns="http://www.w3.org/2000/svg" width="22.312" height="22.359" viewBox="0 0 22.312 22.359"><g transform="translate(-0.539 0)"><g transform="translate(0.539 0)"><path d="M22.267,16.41l-3.12-3.12a2.075,2.075,0,0,0-3.455.78,2.124,2.124,0,0,1-2.452,1.337C11.011,14.849,8,11.952,7.445,9.612A2.02,2.02,0,0,1,8.782,7.16a2.075,2.075,0,0,0,.78-3.455L6.442.585a2.226,2.226,0,0,0-3.009,0L1.316,2.7C-.8,4.931,1.539,10.838,6.776,16.075s11.144,7.689,13.373,5.461l2.117-2.117A2.226,2.226,0,0,0,22.267,16.41Z" transform="translate(-0.539 0)"/></g></g></svg>